Coordinates
version=1
nRows=10
nColumns=22
inDegrees=yes

Units are S.I. units (second, meters, Newtons, ...)
If the header above contains a line with 'inDegrees', this indicates whether rotational values are in degrees (yes) or radians (no).

endheader
time	pelvis_tilt	pelvis_list	pelvis_rotation	pelvis_tx	pelvis_ty	pelvis_tz	hip_flexion_r	hip_adduction_r	hip_rotation_r	knee_angle_r	ankle_angle_r	subtalar_angle_r	hip_flexion_l	hip_adduction_l	hip_rotation_l	knee_angle_l	ankle_angle_l	subtalar_angle_l	lumbar_extension	lumbar_bending	lumbar_rotation
      1.25000000	     -8.75189517	     -0.70229933	      2.23129313	     -0.91424398	      0.94886405	     -0.32420671	     40.90889230	     -0.62799717	    -10.06125962	    -26.21396732	     11.52380101	     -4.64581432	      5.92138001	      2.54905873	     -7.35018215	    -21.76513072	     31.41929856	     -0.27448674	     -5.30919672	      0.18354846	      0.36664985
      1.26000000	     -8.72543502	     -0.79550548	      2.39755381	     -0.90746706	      0.94759111	     -0.32320994	     40.89972134	     -0.44090454	     -9.81414979	    -26.65384498	     10.96603532	     -4.95111393	      5.66040112	      2.33707302	     -7.19676319	    -22.15164606	     31.67952944	     -0.07310225	     -5.23981858	      0.29513176	      0.23609719
      1.27000000	     -8.70498378	     -0.89142320	      2.55440093	     -0.90048172	      0.94636294	     -0.32214134	     40.90124375	     -0.23776181	     -9.55945323	    -27.22142015	     10.30327886	     -5.36707955	      5.40428713	      2.10703404	     -7.07393852	    -22.56014070	     31.90507367	      0.20436946	     -5.14494273	      0.41142985	      0.10726294
      1.28000000	     -8.68793258	     -1.00190435	      2.68297543	     -0.89330868	      0.94521339	     -0.32095038	     40.91028549	      0.00195416	     -9.30633581	    -27.88362516	      9.51971090	     -5.82395812	      5.15641977	      1.84666876	     -6.96295733	    -23.00286662	     32.05348495	      0.50552537	     -5.03124853	      0.53540843	      0.03240138
      1.29000000	     -8.66502371	     -1.10888563	      2.77555525	     -0.88592845	      0.94417742	     -0.31965912	     40.91789875	      0.25962900	     -9.05793213	    -28.62003492	      8.66030781	     -6.40884577	      4.89574034	      1.57834405	     -6.87242167	    -23.46180683	     32.12767426	      0.87358517	     -4.90946063	      0.65556782	     -0.00269952
      1.30000000	     -8.62681079	     -1.21376443	      2.82572865	     -0.87834357	      0.94329064	     -0.31826110	     40.91455594	      0.53646072	     -8.81625463	    -29.40958512	      7.78516106	     -7.11029687	      4.61152075	      1.30233840	     -6.79598498	    -23.93513129	     32.11661394	      1.29839821	     -4.79251010	      0.77324729	      0.00260643
      1.31000000	     -8.56830975	     -1.32459275	      2.82258695	     -0.87055383	      0.94257425	     -0.31674036	     40.89131662	      0.84393115	     -8.57957143	    -30.23018753	      6.97775681	     -7.89300639	      4.30994188	      1.00772020	     -6.74994666	    -24.44660352	     32.01988054	      1.76854514	     -4.68629880	      0.89979325	      0.04911561
      1.32000000	     -8.48036554	     -1.43670380	      2.76812291	     -0.86255285	      0.94205730	     -0.31511572	     40.83289817	      1.17495473	     -8.34436066	    -31.06926437	      6.31587379	     -8.73424631	      3.98083662	      0.70512912	     -6.71454010	    -24.99540799	     31.82808526	      2.29797462	     -4.60239669	      1.03314147	      0.13346843
      1.33000000	     -8.35443772	     -1.55119747	      2.67091584	     -0.85434255	      0.94176575	     -0.31340129	     40.72002408	      1.52649924	     -8.11455964	    -31.91103866	      5.86104815	     -9.58872821	      3.62623437	      0.39647929	     -6.66901032	    -25.60139394	     31.53380318	      2.90291055	     -4.55157332	      1.17534538	      0.24060668
      1.34000000	     -8.19980397	     -1.68494694	      2.52325107	     -0.84592111	      0.94169160	     -0.31157782	     40.54246985	      1.92538754	     -7.87359409	    -32.71998733	      5.62525447	    -10.37362256	      3.27025722	      0.06254105	     -6.61923266	    -26.29086155	     31.11940173	      3.58180990	     -4.52052625	      1.34702662	      0.37682710
